<?xml version="1.0" encoding="utf-8"?>
<!-- Generator: Adobe Illustrator 18.0.0, SVG Export Plug-In . SVG Version: 6.00 Build 0)  -->
<!DOCTYPE svg PUBLIC "-//W3C//DTD SVG 1.1//EN" "http://www.w3.org/Graphics/SVG/1.1/DTD/svg11.dtd">
<svg version="1.1" id="Ebene_1" xmlns="http://www.w3.org/2000/svg" xmlns:xlink="http://www.w3.org/1999/xlink" x="0px" y="0px"
	 viewBox="0 0 40 40" enable-background="new 0 0 40 40" xml:space="preserve">
<path fill="#444444" d="M20,0C9,0,0,9,0,20s9,20,20,20s20-9,20-20S31,0,20,0z M23,27.4c0.6,0.5,1.1,1.5,1.1,3.1c0,2.2,0,4,0,4.5
	h-8.2c0-0.4,0-1.4,0-2.8c-4.6,1-5.6-2.2-5.6-2.2c-0.7-1.9-1.8-2.4-1.8-2.4c-1.5-1,0.1-1,0.1-1c1.7,0.1,2.5,1.7,2.5,1.7
	c1.5,2.5,3.9,1.8,4.8,1.4c0.2-1.1,0.6-1.8,1-2.2c-3.7-0.4-7.5-1.8-7.5-8.2c0-1.8,0.6-3.3,1.7-4.4c-0.2-0.4-0.7-2.1,0.2-4.4
	c0,0,1.4-0.4,4.5,1.7c1.3-0.4,2.7-0.5,4.1-0.6c1.4,0,2.8,0.2,4.1,0.6c3.2-2.1,4.5-1.7,4.5-1.7c0.9,2.3,0.3,3.9,0.2,4.4
	c1.1,1.2,1.7,2.6,1.7,4.4C30.5,25.6,26.7,27,23,27.4z"/>
</svg>
