<?xml version="1.0" encoding="utf-8"?>
<!-- Generator: Adobe Illustrator 18.0.0, SVG Export Plug-In . SVG Version: 6.00 Build 0)  -->
<!DOCTYPE svg PUBLIC "-//W3C//DTD SVG 1.1//EN" "http://www.w3.org/Graphics/SVG/1.1/DTD/svg11.dtd">
<svg version="1.1" id="Ebene_1" xmlns="http://www.w3.org/2000/svg" xmlns:xlink="http://www.w3.org/1999/xlink" x="0px" y="0px"
	 viewBox="0 0 1000 1000" enable-background="new 0 0 1000 1000" xml:space="preserve">
<circle fill="#444444" cx="500" cy="500" r="500"/>
<g display="none">
	<g display="inline">
		<g>
			<defs>
				<path id="SVGID_2_" d="M500,837.5C312.5,837.5,162.5,685,162.5,500c0-187.5,152.5-337.5,337.5-337.5
					c187.5,0,337.5,152.5,337.5,337.5C840,685,687.5,837.5,500,837.5L500,837.5z M787.5,545c-10-2.5-90-27.5-180-12.5
					c37.5,105,52.5,187.5,55,205C727.5,695,772.5,625,787.5,545L787.5,545z M615,765c-5-25-20-112.5-62.5-220H550
					c-162.5,57.5-222.5,170-227.5,180c50,37.5,110,60,177.5,60C540,787.5,580,780,615,765L615,765z M285,692.5
					c7.5-10,85-142.5,235-190c5,0,7.5-2.5,12.5-2.5c-7.5-17.5-15-32.5-22.5-50c-145,42.5-285,40-297.5,40c0,2.5,0,5,0,10
					C212.5,575,240,642.5,285,692.5L285,692.5z M217.5,440c12.5,0,132.5,0,267.5-35c-47.5-85-100-157.5-107.5-167.5
					C297.5,277.5,237.5,350,217.5,440L217.5,440z M432.5,220c7.5,10,60,82.5,107.5,170c102.5-37.5,147.5-97.5,152.5-105
					c-50-45-117.5-72.5-192.5-72.5C477.5,210,455,212.5,432.5,220L432.5,220z M725,317.5c-5,7.5-55,70-162.5,115
					c7.5,15,12.5,27.5,20,42.5c2.5,5,5,10,5,15C685,477.5,780,497.5,790,500C790,427.5,765,365,725,317.5L725,317.5z"/>
			</defs>
			<clipPath id="SVGID_3_">
				<use xlink:href="#SVGID_2_"  overflow="visible"/>
			</clipPath>
			<g clip-path="url(#SVGID_3_)">
				<path fill="#FFFFFF" d="M842.5,840c-227.5,0-455,0-680,0c0-227.5,0-455,0-680c227.5,0,455,0,680,0
					C842.5,385,842.5,612.5,842.5,840z"/>
			</g>
		</g>
		<g>
			<path id="SVGID_1_" fill="none" stroke="#FFFFFF" stroke-miterlimit="10" d="M500,837.5C312.5,837.5,162.5,685,162.5,500
				c0-187.5,152.5-337.5,337.5-337.5c187.5,0,337.5,152.5,337.5,337.5C840,685,687.5,837.5,500,837.5L500,837.5z M787.5,545
				c-10-2.5-90-27.5-180-12.5c37.5,105,52.5,187.5,55,205C727.5,695,772.5,625,787.5,545L787.5,545z M615,765
				c-5-25-20-112.5-62.5-220H550c-162.5,57.5-222.5,170-227.5,180c50,37.5,110,60,177.5,60C540,787.5,580,780,615,765L615,765z
				 M285,692.5c7.5-10,85-142.5,235-190c5,0,7.5-2.5,12.5-2.5c-7.5-17.5-15-32.5-22.5-50c-145,42.5-285,40-297.5,40c0,2.5,0,5,0,10
				C212.5,575,240,642.5,285,692.5L285,692.5z M217.5,440c12.5,0,132.5,0,267.5-35c-47.5-85-100-157.5-107.5-167.5
				C297.5,277.5,237.5,350,217.5,440L217.5,440z M432.5,220c7.5,10,60,82.5,107.5,170c102.5-37.5,147.5-97.5,152.5-105
				c-50-45-117.5-72.5-192.5-72.5C477.5,210,455,212.5,432.5,220L432.5,220z M725,317.5c-5,7.5-55,70-162.5,115
				c7.5,15,12.5,27.5,20,42.5c2.5,5,5,10,5,15C685,477.5,780,497.5,790,500C790,427.5,765,365,725,317.5L725,317.5z"/>
		</g>
	</g>
</g>
<g>
	<path fill="#FFFFFF" d="M375,282.5c20,0,37.5,2.5,52.5,5c15,2.5,30,10,40,17.5c10,7.5,20,17.5,25,30c5,12.5,10,27.5,10,47.5
		c0,20-5,37.5-12.5,50c-10,12.5-22.5,25-40,32.5c25,7.5,42.5,20,55,37.5c12.5,17.5,17.5,40,17.5,65c0,20-5,37.5-12.5,52.5
		s-17.5,27.5-32.5,35c-12.5,10-27.5,15-45,20c-17.5,5-35,7.5-52.5,7.5H185v-400H375z M362.5,445c15,0,27.5-2.5,37.5-10
		c10-7.5,15-20,15-35c0-10-2.5-17.5-5-22.5c-2.5-5-7.5-10-12.5-15c-5-2.5-12.5-5-20-7.5c-7.5-2.5-15-2.5-22.5-2.5h-80V445H362.5z
		 M367.5,615c7.5,0,17.5,0,25-2.5s15-5,20-7.5c5-5,10-10,15-15c2.5-7.5,5-15,5-25c0-20-5-35-17.5-45c-12.5-7.5-27.5-12.5-45-12.5
		h-95v110h92.5V615z"/>
	<path fill="#FFFFFF" d="M645,612.5c12.5,12.5,30,17.5,52.5,17.5c15,0,30-5,42.5-12.5c12.5-7.5,17.5-17.5,20-25h70
		c-10,35-27.5,60-52.5,75c-22.5,15-50,22.5-82.5,22.5c-22.5,0-42.5-2.5-62.5-10c-17.5-7.5-32.5-17.5-47.5-30
		c-12.5-12.5-22.5-30-30-47.5c-7.5-17.5-10-40-10-62.5s2.5-42.5,10-60c7.5-17.5,17.5-35,30-47.5s27.5-25,47.5-32.5
		c17.5-7.5,37.5-12.5,60-12.5c25,0,45,5,65,15c17.5,10,32.5,22.5,45,37.5c12.5,15,20,35,25,55s7.5,42.5,5,65H625
		C625,580,632.5,600,645,612.5z M735,460c-10-10-25-15-45-15c-12.5,0-22.5,2.5-32.5,7.5c-7.5,5-15,10-20,15c-5,7.5-7.5,12.5-10,20
		c0,7.5-2.5,12.5-2.5,20h130C752.5,487.5,745,472.5,735,460z"/>
	<rect x="610" y="310" fill="#FFFFFF" width="162.5" height="40"/>
</g>
</svg>
