<?xml version="1.0" encoding="utf-8"?>
<!-- Generator: Adobe Illustrator 18.0.0, SVG Export Plug-In . SVG Version: 6.00 Build 0)  -->
<!DOCTYPE svg PUBLIC "-//W3C//DTD SVG 1.1//EN" "http://www.w3.org/Graphics/SVG/1.1/DTD/svg11.dtd">
<svg version="1.1" id="Ebene_1" xmlns="http://www.w3.org/2000/svg" xmlns:xlink="http://www.w3.org/1999/xlink" x="0px" y="0px"
	 viewBox="0 0 1000 1000" enable-background="new 0 0 1000 1000" xml:space="preserve">
<circle fill="#444444" cx="500" cy="500" r="500"/>
<g>
	<g>
		<g>
			<defs>
				<path id="SVGID_2_" d="M500,837.5C312.5,837.5,162.5,685,162.5,500c0-187.5,152.5-337.5,337.5-337.5
					c187.5,0,337.5,152.5,337.5,337.5C840,685,687.5,837.5,500,837.5L500,837.5z M787.5,545c-10-2.5-90-27.5-180-12.5
					c37.5,105,52.5,187.5,55,205C727.5,695,772.5,625,787.5,545L787.5,545z M615,765c-5-25-20-112.5-62.5-220H550
					c-162.5,57.5-222.5,170-227.5,180c50,37.5,110,60,177.5,60C540,787.5,580,780,615,765L615,765z M285,692.5
					c7.5-10,85-142.5,235-190c5,0,7.5-2.5,12.5-2.5c-7.5-17.5-15-32.5-22.5-50c-145,42.5-285,40-297.5,40c0,2.5,0,5,0,10
					C212.5,575,240,642.5,285,692.5L285,692.5z M217.5,440c12.5,0,132.5,0,267.5-35c-47.5-85-100-157.5-107.5-167.5
					C297.5,277.5,237.5,350,217.5,440L217.5,440z M432.5,220c7.5,10,60,82.5,107.5,170c102.5-37.5,147.5-97.5,152.5-105
					c-50-45-117.5-72.5-192.5-72.5C477.5,210,455,212.5,432.5,220L432.5,220z M725,317.5c-5,7.5-55,70-162.5,115
					c7.5,15,12.5,27.5,20,42.5c2.5,5,5,10,5,15C685,477.5,780,497.5,790,500C790,427.5,765,365,725,317.5L725,317.5z"/>
			</defs>
			<clipPath id="SVGID_3_">
				<use xlink:href="#SVGID_2_"  overflow="visible"/>
			</clipPath>
			<g clip-path="url(#SVGID_3_)">
				<path fill="#FFFFFF" d="M842.5,840c-227.5,0-455,0-680,0c0-227.5,0-455,0-680c227.5,0,455,0,680,0
					C842.5,385,842.5,612.5,842.5,840z"/>
			</g>
		</g>
		<g>
			<path id="SVGID_1_" fill="none" stroke="#FFFFFF" stroke-miterlimit="10" d="M500,837.5C312.5,837.5,162.5,685,162.5,500
				c0-187.5,152.5-337.5,337.5-337.5c187.5,0,337.5,152.5,337.5,337.5C840,685,687.5,837.5,500,837.5L500,837.5z M787.5,545
				c-10-2.5-90-27.5-180-12.5c37.5,105,52.5,187.5,55,205C727.5,695,772.5,625,787.5,545L787.5,545z M615,765
				c-5-25-20-112.5-62.5-220H550c-162.5,57.5-222.5,170-227.5,180c50,37.5,110,60,177.5,60C540,787.5,580,780,615,765L615,765z
				 M285,692.5c7.5-10,85-142.5,235-190c5,0,7.5-2.5,12.5-2.5c-7.5-17.5-15-32.5-22.5-50c-145,42.5-285,40-297.5,40c0,2.5,0,5,0,10
				C212.5,575,240,642.5,285,692.5L285,692.5z M217.5,440c12.5,0,132.5,0,267.5-35c-47.5-85-100-157.5-107.5-167.5
				C297.5,277.5,237.5,350,217.5,440L217.5,440z M432.5,220c7.5,10,60,82.5,107.5,170c102.5-37.5,147.5-97.5,152.5-105
				c-50-45-117.5-72.5-192.5-72.5C477.5,210,455,212.5,432.5,220L432.5,220z M725,317.5c-5,7.5-55,70-162.5,115
				c7.5,15,12.5,27.5,20,42.5c2.5,5,5,10,5,15C685,477.5,780,497.5,790,500C790,427.5,765,365,725,317.5L725,317.5z"/>
		</g>
	</g>
</g>
</svg>
