<?xml version="1.0" encoding="utf-8"?>
<!-- Generator: Adobe Illustrator 18.0.0, SVG Export Plug-In . SVG Version: 6.00 Build 0)  -->
<!DOCTYPE svg PUBLIC "-//W3C//DTD SVG 1.1//EN" "http://www.w3.org/Graphics/SVG/1.1/DTD/svg11.dtd">
<svg version="1.1" id="Ebene_1" xmlns="http://www.w3.org/2000/svg" xmlns:xlink="http://www.w3.org/1999/xlink" x="0px" y="0px"
	 viewBox="0 0 40 40" enable-background="new 0 0 40 40" xml:space="preserve">
<g>
	<polygon fill="#444444" points="9.8,18.2 9.8,21.8 12.4,20 	"/>
	<polygon fill="#444444" points="18.9,15.6 18.9,10.7 10.6,16.2 14.3,18.7 	"/>
	<polygon fill="#444444" points="29.4,16.2 21.1,10.7 21.1,15.6 25.7,18.7 	"/>
	<polygon fill="#444444" points="10.6,23.8 18.9,29.3 18.9,24.4 14.3,21.3 	"/>
	<polygon fill="#444444" points="21.1,24.4 21.1,29.3 29.4,23.8 25.7,21.3 	"/>
	<polygon fill="#444444" points="20,17.5 16.2,20 20,22.5 23.8,20 	"/>
	<path fill="#444444" d="M20,0C9,0,0,9,0,20s9,20,20,20s20-9,20-20S31,0,20,0z M32.4,23.8v0.1l0,0V24c0,0,0,0,0,0.1v0.1
		c0,0,0,0,0,0.1c0,0,0,0,0,0.1l0,0c0,0,0,0,0,0.1l0,0c0,0,0,0-0.1,0.1l0,0c0,0,0,0-0.1,0.1l0,0l0,0l-11.3,7.5
		c-0.2,0.1-0.4,0.2-0.6,0.2s-0.4-0.1-0.6-0.2L8.1,24.7l0,0l0,0c0,0,0,0-0.1-0.1l0,0c0,0,0,0-0.1-0.1l0,0c0,0,0,0,0-0.1l0,0
		c0,0,0,0,0-0.1c0,0,0,0,0-0.1v-0.1c0,0,0,0,0-0.1v-0.1l0,0v-0.1v-7.5v-0.1l0,0v-0.1c0,0,0,0,0-0.1v-0.1c0,0,0,0,0-0.1
		c0,0,0,0,0-0.1l0,0c0,0,0,0,0-0.1l0,0c0,0,0,0,0.1-0.1l0,0c0,0,0,0,0.1-0.1l0,0l0,0l11.3-7.5c0.4-0.2,0.8-0.2,1.2,0l11.3,7.5l0,0
		l0,0c0,0,0,0,0.1,0.1l0,0c0,0,0,0,0.1,0.1l0,0c0,0,0,0,0,0.1l0,0c0,0,0,0,0,0.1c0,0,0,0,0,0.1V16c0,0,0,0,0,0.1v0.1l0,0v0.1v7.5
		H32.4z"/>
	<polygon fill="#444444" points="30.2,21.8 30.2,18.2 27.6,20 	"/>
</g>
</svg>
