<?xml version="1.0" encoding="utf-8"?>
<!-- Generator: Adobe Illustrator 18.0.0, SVG Export Plug-In . SVG Version: 6.00 Build 0)  -->
<!DOCTYPE svg PUBLIC "-//W3C//DTD SVG 1.1//EN" "http://www.w3.org/Graphics/SVG/1.1/DTD/svg11.dtd">
<svg version="1.1" id="Ebene_1" xmlns="http://www.w3.org/2000/svg" xmlns:xlink="http://www.w3.org/1999/xlink" x="0px" y="0px"
	 viewBox="0 0 40 40" enable-background="new 0 0 40 40" xml:space="preserve">
<circle fill="#1D1D1F" cx="20" cy="20" r="20"/>
<g>
	<g>
		<defs>
			<path id="SVGID_1_" d="M20,33.5c-7.5,0-13.5-6.1-13.5-13.5c0-7.5,6.1-13.5,13.5-13.5c7.5,0,13.5,6.1,13.5,13.5
				C33.6,27.4,27.5,33.5,20,33.5L20,33.5z M31.5,21.8c-0.4-0.1-3.6-1.1-7.2-0.5c1.5,4.2,2.1,7.5,2.2,8.2
				C29.1,27.8,30.9,25,31.5,21.8L31.5,21.8z M24.6,30.6c-0.2-1-0.8-4.5-2.5-8.8c0,0-0.1,0-0.1,0c-6.5,2.3-8.9,6.8-9.1,7.2
				c2,1.5,4.4,2.4,7.1,2.4C21.6,31.5,23.2,31.2,24.6,30.6L24.6,30.6z M11.4,27.7c0.3-0.4,3.4-5.7,9.4-7.6c0.2,0,0.3-0.1,0.5-0.1
				c-0.3-0.7-0.6-1.3-0.9-2C14.6,19.7,9,19.6,8.5,19.6c0,0.1,0,0.2,0,0.4C8.5,23,9.6,25.7,11.4,27.7L11.4,27.7z M8.7,17.6
				c0.5,0,5.3,0,10.7-1.4c-1.9-3.4-4-6.3-4.3-6.7C11.9,11.1,9.5,14,8.7,17.6L8.7,17.6z M17.3,8.8c0.3,0.4,2.4,3.3,4.3,6.8
				c4.1-1.5,5.9-3.9,6.1-4.2c-2-1.8-4.7-2.9-7.7-2.9C19.1,8.4,18.2,8.5,17.3,8.8L17.3,8.8z M29,12.7c-0.2,0.3-2.2,2.8-6.5,4.6
				c0.3,0.6,0.5,1.1,0.8,1.7c0.1,0.2,0.2,0.4,0.2,0.6c3.9-0.5,7.7,0.3,8.1,0.4C31.6,17.1,30.6,14.6,29,12.7L29,12.7z"/>
		</defs>
		<clipPath id="SVGID_2_">
			<use xlink:href="#SVGID_1_"  overflow="visible"/>
		</clipPath>
		<g clip-path="url(#SVGID_2_)">
			<path fill="#FFFFFF" d="M33.7,33.6c-9.1,0-18.2,0-27.2,0c0-9.1,0-18.2,0-27.2c9.1,0,18.2,0,27.2,0C33.7,15.4,33.7,24.5,33.7,33.6
				z"/>
		</g>
		
			<use xlink:href="#SVGID_1_"  overflow="visible" fill-rule="evenodd" clip-rule="evenodd" fill="none" stroke="#FFFFFF" stroke-miterlimit="10"/>
	</g>
</g>
</svg>
